{
  "accessors": [
    {
      "bufferView": 2,
      "componentType": 5126,
      "count": 16388,
      "max": [
        5.884682655334473,
        1.9917410612106323,
        1.6454315185546875
      ],
      "min": [
        -4.662252426147461,
        -1.8334163427352905,
        -1.6454315185546875
      ],
      "type": "VEC3"
    },
    {
      "bufferView": 2,
      "byteOffset": 196656,
      "componentType": 5126,
      "count": 16388,
      "max": [
        1.0,
        1.0,
        0.9999732971191406
      ],
      "min": [
        -0.9997380971908569,
        -1.0,
        -0.9999732971191406
      ],
      "type": "VEC3"
    },
    {
      "bufferView": 1,
      "componentType": 5126,
      "count": 16388,
      "max": [
        0.9515459537506104,
        1.0
      ],
      "min": [
        0.0,
        0.0
      ],
      "type": "VEC2"
    },
    {
      "bufferView": 0,
      "componentType": 5125,
      "count": 93480,
      "type": "SCALAR"
    },
    {
      "bufferView": 2,
      "byteOffset": 393312,
      "componentType": 5126,
      "count": 1120,
      "max": [
        -3.34163236618042,
        -0.30486243963241577,
        0.6846075057983398
      ],
      "min": [
        -4.055765151977539,
        -0.5280481576919556,
        -0.6914135217666626
      ],
      "type": "VEC3"
    },
    {
      "bufferView": 2,
      "byteOffset": 406752,
      "componentType": 5126,
      "count": 1120,
      "max": [
        0.9873887300491333,
        0.9252508878707886,
        0.9839242696762085
      ],
      "min": [
        -0.9988036751747131,
        -0.867854654788971,
        -0.9843884706497192
      ],
      "type": "VEC3"
    },
    {
      "bufferView": 1,
      "byteOffset": 131104,
      "componentType": 5126,
      "count": 1120,
      "max": [
        0.9978256225585938,
        1.0
      ],
      "min": [
        0.0,
        0.0
      ],
      "type": "VEC2"
    },
    {
      "bufferView": 0,
      "byteOffset": 373920,
      "componentType": 5125,
      "count": 1680,
      "type": "SCALAR"
    }
  ],
  "asset": {
    "extras": {
      "author": "Antonio Rossini (https://sketchfab.com/Rox3d)",
      "license": "CC-BY-4.0 (http://creativecommons.org/licenses/by/4.0/)",
      "source": "https://sketchfab.com/3d-models/shark-paint-1a9ebf43e1fc450eb2ea41179a843419",
      "title": "Shark Paint"
    },
    "generator": "Sketchfab-11.90.0",
    "version": "2.0"
  },
  "bufferViews": [
    {
      "buffer": 0,
      "byteLength": 380640,
      "name": "floatBufferViews",
      "target": 34963
    },
    {
      "buffer": 0,
      "byteLength": 140064,
      "byteOffset": 380640,
      "byteStride": 8,
      "name": "floatBufferViews",
      "target": 34962
    },
    {
      "buffer": 0,
      "byteLength": 420192,
      "byteOffset": 520704,
      "byteStride": 12,
      "name": "floatBufferViews",
      "target": 34962
    }
  ],
  "buffers": [
    {
      "byteLength": 940896,
      "uri": "scene.bin"
    }
  ],
  "images": [
    {
      "uri": "textures/Material_baseColor.png"
    }
  ],
  "materials": [
    {
      "doubleSided": true,
      "name": "Material",
      "pbrMetallicRoughness": {
        "baseColorTexture": {
          "index": 0
        },
        "metallicFactor": 0.0,
        "roughnessFactor": 0.44143113143760754
      }
    },
    {
      "doubleSided": true,
      "name": "Teeth",
      "pbrMetallicRoughness": {
        "metallicFactor": 0.0,
        "roughnessFactor": 0.4
      }
    }
  ],
  "meshes": [
    {
      "name": "Object_0",
      "primitives": [
        {
          "attributes": {
            "NORMAL": 1,
            "POSITION": 0,
            "TEXCOORD_0": 2
          },
          "indices": 3,
          "material": 0,
          "mode": 4
        }
      ]
    },
    {
      "name": "Object_1",
      "primitives": [
        {
          "attributes": {
            "NORMAL": 5,
            "POSITION": 4,
            "TEXCOORD_0": 6
          },
          "indices": 7,
          "material": 1,
          "mode": 4
        }
      ]
    }
  ],
  "nodes": [
    {
      "children": [
        1
      ],
      "matrix": [
        1.0,
        0.0,
        0.0,
        0.0,
        0.0,
        2.220446049250313e-16,
        -1.0,
        0.0,
        0.0,
        1.0,
        2.220446049250313e-16,
        0.0,
        0.0,
        0.0,
        0.0,
        1.0
      ],
      "name": "Sketchfab_model"
    },
    {
      "children": [
        2
      ],
      "name": "root"
    },
    {
      "children": [
        3,
        5
      ],
      "matrix": [
        1.0,
        0.0,
        0.0,
        0.0,
        0.0,
        2.220446049250313e-16,
        1.0,
        0.0,
        0.0,
        -1.0,
        2.220446049250313e-16,
        0.0,
        0.0,
        0.0,
        0.0,
        1.0
      ],
      "name": "GLTF_SceneRootNode"
    },
    {
      "children": [
        4
      ],
      "matrix": [
        0.42412781715393066,
        0.0,
        0.0,
        0.0,
        0.0,
        0.42412781715393066,
        0.0,
        0.0,
        0.0,
        0.0,
        0.42412781715393066,
        0.0,
        -0.047737956047058105,
        0.1562332808971405,
        0.0,
        1.0
      ],
      "name": "Cube_0"
    },
    {
      "mesh": 0,
      "name": "Object_4"
    },
    {
      "children": [
        6
      ],
      "matrix": [
        0.42412781715393066,
        0.0,
        0.0,
        0.0,
        0.0,
        0.42412781715393066,
        0.0,
        0.0,
        0.0,
        0.0,
        0.42412781715393066,
        0.0,
        -0.047737956047058105,
        0.1562332808971405,
        0.0,
        1.0
      ],
      "name": "Cube.001_4"
    },
    {
      "mesh": 1,
      "name": "Object_6"
    }
  ],
  "samplers": [
    {
      "magFilter": 9729,
      "minFilter": 9987,
      "wrapS": 10497,
      "wrapT": 10497
    }
  ],
  "scene": 0,
  "scenes": [
    {
      "name": "Sketchfab_Scene",
      "nodes": [
        0
      ]
    }
  ],
  "textures": [
    {
      "sampler": 0,
      "source": 0
    }
  ]
}
